{
	"asset":{
		"version":"2.0",
		"generator":"Created using the official Cinema 4D glTF Exporter 1.000x284978"
	},
	"scenes":[{
		"nodes":[0]
	}],
	"nodes":[{
		"name":"Extrude",
		"mesh":0
	}],
	"meshes":[{
		"primitives":[{
			"material":0,
			"attributes":{
				"POSITION":1,
				"NORMAL":2,
				"TEXCOORD_0":3
			},
			"indices":0
		}],
		"name":"Extrude"
	}],
	"accessors":[{
		"bufferView":0,
		"type":"SCALAR",
		"componentType":5123,
		"count":30360,
		"byteOffset":0,
		"min":[0],
		"max":[6059]
	},
	{
		"bufferView":1,
		"type":"VEC3",
		"componentType":5126,
		"count":6060,
		"byteOffset":0,
		"min":[-137.67112731933595,
		-154.45924377441407,
		-19.709999084472658],
		"max":[136.98487854003907,
		61.04594802856445,
		17.209999084472658]
	},
	{
		"bufferView":1,
		"type":"VEC3",
		"componentType":5126,
		"count":6060,
		"byteOffset":12,
		"min":[-0.999998927116394,
		-0.9999957084655762,
		-1.0],
		"max":[0.9999799728393555,
		0.9997930526733398,
		1.0]
	},
	{
		"bufferView":1,
		"type":"VEC2",
		"componentType":5126,
		"count":6060,
		"byteOffset":24,
		"min":[0.0,
		0.0],
		"max":[1.0,
		1.0]
	}],
	"bufferViews":[{
		"buffer":0,
		"byteOffset":0,
		"byteLength":60720,
		"target":34963
	},
	{
		"buffer":0,
		"byteOffset":60720,
		"byteLength":193920,
		"target":34962,
		"byteStride":32
	}],
	"buffers":[{
		"uri":"data:application/octet-stream;base64,",
		"byteLength":254640
	}],
	"materials":[{
		"doubleSided":true,
		"pbrMetallicRoughness":{
			"baseColorFactor":[1.0,
			1.0,
			1.0,
			1.0],
			"metallicFactor":0.0,
			"roughnessFactor":0.5
		},
		"emissiveFactor":[0.0,
		0.0,
		0.0],
		"alphaMode":"OPAQUE",
		"name":"Mat"
	}]
}